<svg width="606" height="232" viewBox="0 0 606 232" xmlns="http://www.w3.org/2000/svg" xmlns:xlink="http://www.w3.org/1999/xlink"><title>Logo</title><defs><path id="a" d="M0 .82h599.99v223.4H0V.82z"/></defs><g transform="translate(4 1)" fill="none" fill-rule="evenodd"><path d="M10.974 120.16v27.392c5.618.46 10.04.738 13.264.738 11.694 0 16.39-4.43 16.39-13.188v-1.938c0-8.67-4.696-13.004-14.18-13.004H10.974zm0 57.27H3.52v-63.264h23.484c14.087 0 21.088 6.64 21.088 19.83 0 13.556-7.647 20.378-22.843 20.378-3.04 0-7.737-.275-14.276-.828v23.885z" fill="#FFF"/><path d="M73.55 178.17c-.093.093-.368 1.01-1.014 2.674-.552 1.66-.917 2.672-1.1 3.044-.185.46-.647 1.38-1.29 2.766-.646 1.475-1.292 2.49-1.75 2.95-.83 1.106-2.947 3.69-4.792 4.425-1.84.83-4.51 1.752-7.46 1.752-2.392 0-5.248-.275-8.562-.828.274-2.212.55-4.153.733-5.72 2.397.37 4.7.554 6.816.554 2.12 0 3.687-.275 5.066-1.384 1.473-1.103 2.025-1.29 3.134-3.503.552-1.012.92-1.753 1.104-2.212.185-.37.553-1.29 1.105-2.77.642-1.47 1.01-2.396 1.194-2.855h-2.852L45.37 129.647h7.735l15.658 42.25h.184l14.824-42.25h7.738L73.55 178.17z" fill="#FFF"/><path d="M87.31 135.562v-5.904h5.985l1.015-10.234h5.986v10.234h17.96v5.904h-17.96V161.2c0 8.022 2.58 10.882 9.67 10.882 2.395 0 5.25-.275 8.475-.738l.643 5.9c-4.325.647-8.195 1.016-11.42 1.016-10.404 0-14.368-5.256-14.368-16.785v-25.913H87.31zM129.318 177.43h-6.997v-69.168h6.998v24.717c5.162-1.75 9.12-3.045 11.88-3.69 2.767-.736 5.438-1.105 8.106-1.105 8.383 0 12.528 4.52 12.528 13.647v35.6h-6.91v-34.215c0-5.904-2.762-8.854-8.196-8.854-2.946 0-7 .922-9.946 1.754-1.476.368-3.96 1.106-7.462 2.212v39.1zM175.723 138.328c-1.838 2.676-2.762 7.38-2.762 14.11v1.844c0 6.825.925 11.53 2.857 14.204 1.935 2.675 5.892 3.966 11.878 3.966s9.95-1.29 11.88-3.966c1.936-2.675 2.857-7.38 2.857-14.204v-1.844c0-6.73-.368-10.144-2.488-13.463-1.93-3.412-5.892-4.703-12.524-4.703-5.895 0-9.762 1.38-11.697 4.056m-5.527 34.677c-2.943-3.782-4.42-10.33-4.42-19.645 0-9.406 1.477-15.953 4.42-19.64 3.043-3.782 8.845-5.626 17.5-5.626 8.566 0 14.368 1.844 17.408 5.625 3.04 3.687 4.512 10.234 4.512 19.64 0 9.316-1.473 15.863-4.512 19.645-3.04 3.78-8.842 5.625-17.41 5.625-8.653 0-14.455-1.844-17.498-5.625M220.93 177.43h-6.996v-48.048h5.8l.463 3.78c5.434-1.843 9.58-3.133 12.43-3.87 2.856-.738 5.622-1.107 8.29-1.107 8.383 0 12.528 4.52 12.528 13.647v35.6h-6.91v-34.215c0-5.904-2.762-8.854-8.196-8.854-2.947 0-7 .922-9.947 1.754-1.477.368-3.96 1.106-7.463 2.212v39.1zM273.414 177.43v-63.264h9.484l34.446 55.15-.83-32.093-.094-23.057h7.368v63.265h-9.574l-34.356-55.148.827 32.28v22.87h-7.27zM338.877 138.328c-1.838 2.676-2.762 7.38-2.762 14.11v1.844c0 6.825.924 11.53 2.856 14.204 1.936 2.675 5.893 3.966 11.88 3.966 5.984 0 9.948-1.29 11.88-3.966 1.935-2.675 2.856-7.38 2.856-14.204v-1.844c0-6.73-.37-10.144-2.488-13.463-1.93-3.412-5.892-4.703-12.524-4.703-5.895 0-9.762 1.38-11.697 4.056m-5.527 34.677c-2.943-3.782-4.42-10.33-4.42-19.645 0-9.406 1.477-15.953 4.42-19.64 3.043-3.782 8.845-5.626 17.5-5.626 8.566 0 14.367 1.844 17.407 5.625 3.04 3.687 4.513 10.234 4.513 19.64 0 9.316-1.473 15.863-4.513 19.645-3.04 3.78-8.84 5.625-17.408 5.625-8.655 0-14.457-1.844-17.5-5.625M383.24 177.43h-6.996v-48.048h6.08l.368 8.12c4.145-3.598 7.18-5.998 9.207-7.195 2.027-1.2 4.42-1.844 7.277-1.844 1.198 0 2.578.185 4.144.46l-1.013 7.653c-2.025-.185-3.408-.275-4.145-.275-2.303 0-4.513.46-6.632 1.292-2.025.828-4.787 2.49-8.29 4.887v34.95zM409.433 155.48c0 11.714 2.393 16.97 9.852 16.97 3.318 0 8.936-1.29 16.853-3.965v-32.83c-5.524-.556-9.484-.83-11.788-.83-6.08 0-10.13 1.384-12.065 4.056-1.932 2.676-2.852 7.104-2.852 13.282v3.32zm33.705 21.952h-5.708l-.462-3.78c-8.747 3.318-15.195 4.977-19.434 4.977-11.42 0-15.286-7.286-15.286-24.714 0-9.5 1.567-16.142 4.603-19.735 3.135-3.596 9.12-5.444 17.963-5.444 2.303 0 6.076.28 11.325.832v-21.304h7v69.168zM456.338 137.775c-1.93 2.49-2.946 6.64-2.946 12.45h26.153c.094-1.565.184-2.765.184-3.506 0-8.577-3.958-12.817-11.788-12.817-5.802 0-9.67 1.29-11.604 3.872m27.08 39.1c-5.895 1.017-11.05 1.57-15.567 1.57-8.288 0-13.996-1.753-17.04-5.35-3.035-3.594-4.602-10.235-4.602-19.92 0-9.406 1.567-15.953 4.697-19.55 3.224-3.598 8.935-5.44 17.22-5.44 12.066 0 18.052 6.455 18.052 19.275 0 3.228-.184 6.084-.552 8.575h-32.233c0 5.81.553 9.222 2.668 12.266 2.213 2.95 6.174 4.245 12.712 4.245 2.487 0 7.184-.463 13.907-1.294.093 1.2.46 4.43.74 5.626M489.6 170.882c5.984.832 10.866 1.2 14.645 1.2 8.745 0 12.52-1.293 12.52-7.193 0-4.89-2.483-6.733-9.02-8.208l-7.464-1.66c-8.378-1.846-12.432-4.89-12.432-13.375 0-9.866 5.895-13.185 18.697-13.185 4.05 0 8.936.46 14.553 1.38l-.736 5.905c-6.174-.738-10.683-1.11-13.633-1.11-8.748 0-11.698 1.48-11.698 7.288 0 4.703 2.12 5.81 8.657 7.194l7.274 1.565c8.936 1.843 13.17 5.997 13.17 14.11 0 9.963-6.263 13.65-19.89 13.65-4.515 0-9.58-.462-15.382-1.475l.737-6.088zM524.135 135.562v-5.904h5.985l1.015-10.234h5.986v10.234h17.962v5.904h-17.96V161.2c0 8.022 2.58 10.882 9.67 10.882 2.394 0 5.25-.275 8.474-.738l.643 5.9c-4.327.647-8.197 1.016-11.42 1.016-10.406 0-14.37-5.256-14.37-16.785v-25.913h-5.985z" fill="#FFF"/><path d="M565.1 137.775c-1.932 2.49-2.947 6.64-2.947 12.45h26.153c.094-1.565.185-2.765.185-3.506 0-8.577-3.956-12.817-11.787-12.817-5.802 0-9.67 1.29-11.604 3.872m27.08 39.1c-5.896 1.017-11.055 1.57-15.567 1.57-8.29 0-13.998-1.753-17.04-5.35-3.037-3.594-4.604-10.235-4.604-19.92 0-9.406 1.566-15.953 4.696-19.55 3.224-3.598 8.935-5.44 17.22-5.44 12.067 0 18.052 6.455 18.052 19.275 0 3.228-.184 6.084-.552 8.575h-32.233c0 5.81.553 9.222 2.668 12.266 2.214 2.95 6.175 4.245 12.713 4.245 2.488 0 7.185-.463 13.907-1.294.094 1.2.462 4.43.74 5.626M156.784 223.866V203.98h-6.94v-2.184h16.706v2.185h-7.133v19.886h-2.633zM175.36 211.513h10.09v2.087h-10.09v8.11h11.565v2.156h-14.202v-22.07h14.136v2.123h-11.5v7.593zM196.832 203.888v9.073c1.737.192 3.31.286 4.756.286 3.498 0 5.555-1.478 5.555-4.31v-.48c0-3.054-1.605-4.568-4.85-4.568h-5.46zm0 19.98h-2.57v-22.074h8.222c4.854 0 7.296 2.286 7.296 6.888 0 3.507-1.994 5.594-5.107 6.366l5.78 8.82H207.5l-5.364-8.528h-.195c-1.512 0-3.215-.097-5.108-.292v8.82zM220.198 211.513h10.09v2.087h-10.09v8.11h11.565v2.156H217.56v-22.07h14.137v2.123h-11.5v7.593zM238.168 221.324c2.345.355 4.34.51 6.006.51 3.6 0 5.944-.573 5.944-3.662 0-2.32-1.153-3.35-4.207-4.12l-3.084-.77c-1.83-.485-3.213-1.128-4.144-1.932-.93-.838-1.38-2.157-1.38-3.924 0-4.407 2.696-5.987 8.06-5.987 1.83 0 3.923.198 6.233.58l-.288 2.25c-2.342-.32-4.145-.48-5.427-.48-4.113 0-5.784.87-5.784 3.668 0 2.188 1.09 2.897 4.012 3.635l3.023.74c3.857.93 5.75 2.798 5.75 6.304 0 4.28-2.73 6.05-8.51 6.05-1.77 0-3.955-.195-6.49-.612l.288-2.25z" fill="#FFF"/><mask id="b" fill="#fff"><use xlink:href="#a"/></mask><path d="M260.12 201.796h2.664v22.07h-2.664v-22.07zM272.107 223.866v-22.07h3.31l12.01 19.238-.284-11.195-.034-8.044h2.573v22.07h-3.346l-11.982-19.238.292 11.257v7.98h-2.54zM305.79 203.824l-4.21 11.644h8.48l-4.27-11.644zm7.262 20.042l-2.38-6.276H301l-2.34 6.276h-2.7l8.125-22.07h3.502l8.196 22.07h-2.73zM331.28 213.763h7.743v2.188h-7.743v-2.187zM360.307 203.888v9.557c1.96.156 3.498.253 4.624.253 4.08 0 5.723-1.544 5.723-4.598v-.675c0-3.023-1.644-4.537-4.95-4.537h-5.396zm0 19.98H357.7v-22.074h8.197c4.912 0 7.358 2.32 7.358 6.92 0 4.73-2.668 7.11-7.97 7.11-1.063 0-2.7-.1-4.978-.292v8.335zM379.72 201.796h2.664v22.07h-2.665v-22.07zM398.52 203.824l-4.21 11.644h8.48l-4.27-11.644zm7.262 20.042l-2.38-6.276h-9.672l-2.34 6.276h-2.7l8.125-22.07h3.502l8.195 22.07h-2.73zM414.528 201.796h2.696v12.45c.164 6.404 1.546 7.626 6.01 7.653 2.346 0 3.92-.512 4.753-1.577.87-1.057 1.29-3.085 1.29-6.077v-12.45h2.695v12.32c0 8.11-2.35 10.104-8.737 10.104-6.362 0-8.707-1.994-8.707-10.103v-12.32zM441.075 201.796h2.665v22.07h-2.665v-22.07zm-1.542-3.09l7.23-3.955.93 2.19-7.518 3.186-.642-1.42zM34.33 86.528c-.44 0-.86-.202-1.134-.546L5.52 50.798a1.448 1.448 0 0 1 .24-2.025 1.446 1.446 0 0 1 2.023.24L34.203 82.6l25.233-39.717c.25-.396.68-.643 1.15-.667a1.4 1.4 0 0 1 1.205.563l30.3 39.55 27.896-60.07c.233-.5.73-.823 1.285-.83h.02c.54 0 1.044.31 1.288.8l30.93 62.082c.35.71.062 1.576-.65 1.93a1.445 1.445 0 0 1-1.928-.646L121.334 26.19l-27.64 59.507c-.208.455-.646.77-1.146.824-.504.043-.994-.152-1.3-.555L60.756 46.167 35.54 85.86c-.25.393-.673.64-1.142.668h-.07z" fill="#FFF" mask="url(#b)"/><path d="M6.847 84.63H150.78V8.134c-11.097 6.216-29.34 14.962-29.534 15.052L60.463 43.713l-53.616 7V84.63zm145.37 2.88H5.41a1.442 1.442 0 0 1-1.44-1.44V49.448c0-.724.536-1.333 1.255-1.427l54.592-7.1 60.348-20.396c.05-.035 20.744-9.953 31.33-16.114a1.435 1.435 0 0 1 2.16 1.242v80.42a1.44 1.44 0 0 1-1.438 1.44z" fill="#FFF" mask="url(#b)"/><path d="M270.11 86.528h-.07a1.452 1.452 0 0 1-1.143-.668l-25.215-39.693-30.492 39.798a1.428 1.428 0 0 1-1.3.556c-.5-.054-.937-.368-1.146-.823l-27.64-59.508-29.596 59.406c-.36.713-1.22.995-1.928.647-.712-.355-1-1.22-.65-1.93l30.93-62.083c.247-.5.744-.79 1.307-.8.556.007 1.052.33 1.285.83l27.897 60.07 30.297-39.55c.288-.377.75-.596 1.205-.564.47.024.9.27 1.15.667L270.235 82.6l26.417-33.587a1.45 1.45 0 0 1 2.022-.24c.62.494.73 1.398.24 2.025L271.24 85.982a1.454 1.454 0 0 1-1.133.546" fill="#FFF" mask="url(#b)"/><path d="M153.657 84.63H297.59V50.714l-53.34-6.937-60.9-20.525c-.344-.152-18.6-8.9-29.693-15.117V84.63zm145.37 2.88H152.22a1.442 1.442 0 0 1-1.44-1.44V5.653a1.438 1.438 0 0 1 2.16-1.242c10.583 6.16 31.286 16.08 31.494 16.18l60.46 20.393 54.317 7.037c.72.094 1.255.703 1.255 1.427V86.07a1.44 1.44 0 0 1-1.438 1.44z" fill="#FFF" mask="url(#b)"/><path d="M157.8 85.352a5.73 5.73 0 0 0-5.725-5.733 5.73 5.73 0 0 0-5.726 5.732 5.73 5.73 0 0 0 5.725 5.733 5.73 5.73 0 0 0 5.725-5.733M328.05 86.528c-.437 0-.857-.202-1.132-.546l-27.674-35.184a1.448 1.448 0 0 1 .24-2.025 1.446 1.446 0 0 1 2.02.24L327.927 82.6l25.232-39.717c.25-.396.68-.643 1.15-.667.438-.032.917.187 1.206.563l30.297 39.55 27.898-60.07c.233-.5.73-.823 1.286-.83h.01c.55 0 1.053.31 1.296.8l30.93 62.082c.35.71.062 1.576-.65 1.93a1.445 1.445 0 0 1-1.928-.646L415.056 26.19l-27.64 59.507c-.208.455-.646.77-1.146.824-.5.043-.994-.152-1.3-.555l-30.492-39.798-25.215 39.693c-.25.393-.674.64-1.143.668h-.07z" fill="#FFF" mask="url(#b)"/><path d="M300.57 84.63h143.932V8.134c-11.097 6.216-29.34 14.962-29.534 15.052l-60.783 20.528-53.615 7V84.63zm145.37 2.88H299.13a1.442 1.442 0 0 1-1.437-1.44V49.448c0-.724.535-1.333 1.254-1.427l54.592-7.1 60.348-20.396c.048-.035 20.744-9.953 31.33-16.114a1.435 1.435 0 0 1 2.16 1.242v80.42a1.44 1.44 0 0 1-1.438 1.44z" fill="#FFF" mask="url(#b)"/><path d="M563.832 86.528h-.05a1.458 1.458 0 0 1-1.162-.668l-25.215-39.693-30.493 39.798c-.31.403-.778.605-1.3.556-.5-.054-.937-.368-1.145-.823l-27.64-59.508-29.596 59.406a1.445 1.445 0 0 1-1.927.647c-.712-.355-1-1.22-.65-1.93l30.93-62.083c.243-.5.667-.79 1.306-.8.555.007 1.052.33 1.285.83l27.897 60.07 30.297-39.55a1.38 1.38 0 0 1 1.205-.564c.47.024.9.27 1.15.667L563.957 82.6l26.417-33.587a1.45 1.45 0 0 1 2.022-.24c.622.494.73 1.398.24 2.025l-27.67 35.184a1.454 1.454 0 0 1-1.134.546" fill="#FFF" mask="url(#b)"/><path d="M447.38 84.63h143.93V50.714l-53.336-6.937-60.9-20.525c-.345-.152-18.602-8.9-29.694-15.117V84.63zm145.37 2.88H445.94a1.442 1.442 0 0 1-1.437-1.44V5.653a1.438 1.438 0 0 1 2.16-1.242c10.586 6.16 31.285 16.08 31.494 16.18l60.46 20.393 54.317 7.037c.72.094 1.254.703 1.254 1.427V86.07a1.44 1.44 0 0 1-1.438 1.44z" fill="#FFF" mask="url(#b)"/><path d="M451.522 85.352a5.73 5.73 0 0 0-5.725-5.733 5.73 5.73 0 0 0-5.726 5.732 5.73 5.73 0 0 0 5.727 5.733 5.73 5.73 0 0 0 5.725-5.733M11.45 49.81a5.73 5.73 0 0 0-5.726-5.733A5.73 5.73 0 0 0 0 49.81a5.73 5.73 0 0 0 5.724 5.733 5.73 5.73 0 0 0 5.726-5.733M11.45 85.75a5.73 5.73 0 0 0-5.726-5.732A5.73 5.73 0 0 0 0 85.75a5.73 5.73 0 0 0 5.724 5.734 5.73 5.73 0 0 0 5.726-5.733M66.087 43.06a5.73 5.73 0 0 0-5.725-5.733 5.73 5.73 0 0 0-5.725 5.733 5.73 5.73 0 0 0 5.725 5.733 5.73 5.73 0 0 0 5.725-5.733M39.902 85.352a5.73 5.73 0 0 0-5.725-5.733 5.73 5.73 0 0 0-5.726 5.732 5.73 5.73 0 0 0 5.727 5.733 5.73 5.73 0 0 0 5.725-5.733M126.807 22.872a5.73 5.73 0 0 0-5.725-5.733 5.73 5.73 0 0 0-5.725 5.732 5.73 5.73 0 0 0 5.725 5.733 5.73 5.73 0 0 0 5.725-5.733M97.726 85.352A5.73 5.73 0 0 0 92 79.62a5.73 5.73 0 0 0-5.725 5.732A5.73 5.73 0 0 0 92 91.085a5.73 5.73 0 0 0 5.726-5.733M157.943 6.552A5.73 5.73 0 0 0 152.218.82a5.73 5.73 0 0 0-5.725 5.732 5.73 5.73 0 0 0 5.725 5.733 5.73 5.73 0 0 0 5.725-5.733M238.35 43.06a5.73 5.73 0 0 1 5.725-5.733 5.73 5.73 0 0 1 5.725 5.733 5.73 5.73 0 0 1-5.725 5.733 5.73 5.73 0 0 1-5.726-5.733M264.535 85.352a5.73 5.73 0 0 1 5.725-5.733 5.73 5.73 0 0 1 5.726 5.732 5.73 5.73 0 0 1-5.726 5.733 5.73 5.73 0 0 1-5.725-5.733M177.63 22.872a5.73 5.73 0 0 1 5.725-5.733 5.73 5.73 0 0 1 5.725 5.732 5.73 5.73 0 0 1-5.725 5.733 5.73 5.73 0 0 1-5.725-5.733M206.71 85.352a5.73 5.73 0 0 1 5.727-5.733 5.73 5.73 0 0 1 5.725 5.732 5.73 5.73 0 0 1-5.725 5.733 5.73 5.73 0 0 1-5.726-5.733M146.637 85.352a5.73 5.73 0 0 1 5.726-5.733 5.73 5.73 0 0 1 5.725 5.732 5.73 5.73 0 0 1-5.725 5.733 5.73 5.73 0 0 1-5.726-5.733M359.81 43.06a5.73 5.73 0 0 0-5.725-5.733 5.73 5.73 0 0 0-5.726 5.733 5.73 5.73 0 0 0 5.725 5.733 5.73 5.73 0 0 0 5.725-5.733M333.625 85.352a5.73 5.73 0 0 0-5.726-5.733 5.73 5.73 0 0 0-5.726 5.732 5.73 5.73 0 0 0 5.725 5.733 5.73 5.73 0 0 0 5.725-5.733M420.53 22.872a5.73 5.73 0 0 0-5.726-5.733 5.73 5.73 0 0 0-5.725 5.732 5.73 5.73 0 0 0 5.724 5.733 5.73 5.73 0 0 0 5.726-5.733M391.448 85.352a5.73 5.73 0 0 0-5.725-5.733 5.73 5.73 0 0 0-5.725 5.732 5.73 5.73 0 0 0 5.725 5.733 5.73 5.73 0 0 0 5.725-5.733M451.666 6.552A5.73 5.73 0 0 0 445.94.82a5.73 5.73 0 0 0-5.725 5.732 5.73 5.73 0 0 0 5.725 5.733 5.73 5.73 0 0 0 5.726-5.733M586.71 49.81a5.73 5.73 0 0 1 5.725-5.733 5.73 5.73 0 0 1 5.725 5.733 5.73 5.73 0 0 1-5.725 5.733 5.73 5.73 0 0 1-5.725-5.733M586.71 85.75a5.73 5.73 0 0 1 5.725-5.732 5.73 5.73 0 0 1 5.725 5.733 5.73 5.73 0 0 1-5.725 5.734 5.73 5.73 0 0 1-5.725-5.733M532.072 43.06a5.73 5.73 0 0 1 5.725-5.733 5.73 5.73 0 0 1 5.725 5.733 5.73 5.73 0 0 1-5.725 5.733 5.73 5.73 0 0 1-5.725-5.733M558.257 85.352a5.73 5.73 0 0 1 5.725-5.733 5.73 5.73 0 0 1 5.726 5.732 5.73 5.73 0 0 1-5.726 5.733 5.73 5.73 0 0 1-5.725-5.733M471.352 22.872a5.73 5.73 0 0 1 5.725-5.733 5.73 5.73 0 0 1 5.726 5.732 5.73 5.73 0 0 1-5.726 5.733 5.73 5.73 0 0 1-5.725-5.733M500.434 85.352a5.73 5.73 0 0 1 5.725-5.733 5.73 5.73 0 0 1 5.724 5.732 5.73 5.73 0 0 1-5.725 5.733 5.73 5.73 0 0 1-5.726-5.733" fill="#FFF" mask="url(#b)"/><path d="M440.36 85.352a5.73 5.73 0 0 1 5.725-5.733 5.73 5.73 0 0 1 5.725 5.732 5.73 5.73 0 0 1-5.725 5.733 5.73 5.73 0 0 1-5.725-5.733M293.495 49.81a5.73 5.73 0 0 1 5.726-5.733 5.73 5.73 0 0 1 5.726 5.733 5.73 5.73 0 0 1-5.725 5.733 5.73 5.73 0 0 1-5.725-5.733M293.495 85.75a5.73 5.73 0 0 1 5.726-5.732 5.73 5.73 0 0 1 5.726 5.733 5.73 5.73 0 0 1-5.725 5.734 5.73 5.73 0 0 1-5.725-5.733" fill="#FFF" mask="url(#b)"/></g></svg>